<svg width="24" height="24" viewBox="0 0 24 24" fill="none" xmlns="http://www.w3.org/2000/svg">
<path d="M9.76045 14.3677C9.18545 13.7937 8.83545 13.0137 8.83545 12.1387C8.83545 10.3857 10.2474 8.97266 11.9994 8.97266C12.8664 8.97266 13.6644 9.32366 14.2294 9.89766" stroke="#001C00" strokeWidth="1.5" strokeLinecap="round" strokeLinejoin="round"/>
<path d="M15.1046 12.6992C14.8726 13.9892 13.8566 15.0072 12.5676 15.2412" stroke="#001C00" strokeWidth="1.5" strokeLinecap="round" strokeLinejoin="round"/>
<path d="M6.65451 17.4739C5.06751 16.2279 3.72351 14.4079 2.74951 12.1389C3.73351 9.85994 5.08651 8.02994 6.68351 6.77394C8.27051 5.51794 10.1015 4.83594 11.9995 4.83594C13.9085 4.83594 15.7385 5.52794 17.3355 6.79294" stroke="#001C00" strokeWidth="1.5" strokeLinecap="round" strokeLinejoin="round"/>
<path d="M19.4475 8.99219C20.1355 9.90619 20.7405 10.9612 21.2495 12.1382C19.2825 16.6952 15.8065 19.4402 11.9995 19.4402C11.1365 19.4402 10.2855 19.3002 9.46753 19.0272" stroke="#001C00" strokeWidth="1.5" strokeLinecap="round" strokeLinejoin="round"/>
<path d="M19.8868 4.25L4.11279 20.024" stroke="#001C00" strokeWidth="1.5" strokeLinecap="round" strokeLinejoin="round"/>
</svg>
