<svg width="19" height="14" viewBox="0 0 19 14" fill="none" xmlns="http://www.w3.org/2000/svg">
<path d="M18.8253 9.74543C18.5939 9.51529 18.2175 9.51529 17.9854 9.74543L16.2263 11.4892V3.44592C16.2263 1.82156 14.8928 0.500393 13.255 0.500393H8.61969C8.29165 0.500393 8.02542 0.764312 8.02542 1.0895C8.02542 1.41469 8.29165 1.6786 8.61969 1.6786H13.255C14.2375 1.6786 15.0378 2.47193 15.0378 3.44592V11.4892L13.2788 9.74543C13.0466 9.51529 12.6702 9.51529 12.4389 9.74543C12.2075 9.97557 12.2059 10.3487 12.4389 10.578L15.2121 13.3272C15.327 13.4427 15.4791 13.5 15.6321 13.5C15.785 13.5 15.9355 13.4434 16.052 13.3272L18.8253 10.578C19.0582 10.3487 19.0582 9.97557 18.8253 9.74543V9.74543ZM10.3787 12.3218H5.74342C4.7609 12.3218 3.96061 11.5285 3.96061 10.5545V2.51121L5.71965 4.25496C5.83692 4.37043 5.98905 4.42777 6.14119 4.42777C6.29332 4.42777 6.44545 4.37043 6.56114 4.25496C6.7933 4.02482 6.7933 3.65172 6.56114 3.42236L3.78788 0.673197C3.55572 0.442268 3.17934 0.442268 2.94798 0.673197L0.174715 3.42236C-0.0582385 3.65172 -0.0582385 4.02482 0.174715 4.25496C0.407669 4.48511 0.782456 4.48511 1.01462 4.25496L2.77366 2.51121V10.5545C2.77366 12.1788 4.1072 13.5 5.74501 13.5H10.3803C10.7083 13.5 10.9746 13.2361 10.9746 12.9109C10.9746 12.5857 10.7076 12.3218 10.3803 12.3218H10.3787Z" fill="#101010"/>
</svg>
