<svg width="20" height="4" viewBox="0 0 20 4" fill="none" xmlns="http://www.w3.org/2000/svg">
<path fillRule="evenodd" clipRule="evenodd" d="M0 2C0 0.895431 0.895431 0 2 0V0C3.10457 0 4 0.895431 4 2V2C4 3.10457 3.10457 4 2 4V4C0.895431 4 0 3.10457 0 2V2ZM8 2C8 0.895431 8.89543 0 10 0V0C11.1046 0 12 0.895431 12 2V2C12 3.10457 11.1046 4 10 4V4C8.89543 4 8 3.10457 8 2V2ZM20 2C20 0.895431 19.1046 0 18 0V0C16.8954 0 16 0.895431 16 2V2C16 3.10457 16.8954 4 18 4V4C19.1046 4 20 3.10457 20 2V2Z" fill="#707070"/>
</svg>
