<svg width="15" height="16" viewBox="0 0 15 16" fill="none" xmlns="http://www.w3.org/2000/svg">
<path fillRule="evenodd" clipRule="evenodd" d="M7.89751 0.779559L11.6475 4.52956C11.8673 4.74931 11.8673 5.10481 11.6475 5.32456C11.538 5.43556 11.394 5.48956 11.25 5.48956C11.106 5.48956 10.962 5.43481 10.8525 5.32456L8.06251 2.53456V10.1771C8.06251 10.4876 7.81051 10.7396 7.50001 10.7396C7.18951 10.7396 6.93751 10.4876 6.93751 10.1771V2.53456L4.14751 5.32456C3.92776 5.54506 3.57301 5.54356 3.35251 5.32456C3.13201 5.10556 3.13201 4.74931 3.35251 4.52956L7.10251 0.779559C7.32151 0.559809 7.67776 0.559809 7.89751 0.779559ZM1.719 15.3851H13.281C14.229 15.3851 15 14.6141 15 13.6661V9.42706C15 9.11656 14.748 8.86456 14.4375 8.86456C14.127 8.86456 13.875 9.11656 13.875 9.42706V13.6661C13.875 13.9938 13.6088 14.2601 13.281 14.2601H1.719C1.39125 14.2601 1.125 13.9938 1.125 13.6661V9.42706C1.125 9.11656 0.873 8.86456 0.5625 8.86456C0.252 8.86456 0 9.11656 0 9.42706V13.6661C0 14.6141 0.771 15.3851 1.719 15.3851Z" fill="#101010"/>
</svg>
